# xmcd
#
# Track frame offsets:
#	150
#	17286
#	25754
#	38597
#	59611
#	83239
#	103366
#	115381
#	131029
#	145862
#	160702
#
# Disc length: 2353 seconds
#
# Revision: 3
# Processed by: cddbd v1.5.2PL0 Copyright (c) Steve Scherf et al.
# Submitted via: EZCDAudioConverter 7.1.4.1
#
DISCID=8c092f0b
DTITLE=Wanda Jackson - The Party Ain't Over
DYEAR=2011
DGENRE=Country
TTITLE0=Shakin' All Over
TTITLE1=Rip It Up
TTITLE2=Busted
TTITLE3=Rum And Coca-Cola
TTITLE4=Thunder On The Mountain
TTITLE5=You Know I'm No Good
TTITLE6=Like A Baby
TTITLE7=Nervous Breakdown
TTITLE8=Dust On The Bible
TTITLE9=Teach Me Tonight
TTITLE10=Blue Yodel #6
EXTD=
EXTT0=
EXTT1=
EXTT2=
EXTT3=
EXTT4=
EXTT5=
EXTT6=
EXTT7=
EXTT8=
EXTT9=
EXTT10=
PLAYORDER=
